<?xml version="1.0" encoding="UTF-8"?>
<!DOCTYPE svg PUBLIC "-//W3C//DTD SVG 1.1//EN" "http://www.w3.org/Graphics/SVG/1.1/DTD/svg11.dtd">
<!-- Creator: CorelDRAW -->
<svg xmlns="http://www.w3.org/2000/svg" xml:space="preserve" width="2.66666in" height="2.66666in" version="1.1" style="shape-rendering:geometricPrecision; text-rendering:geometricPrecision; image-rendering:optimizeQuality; fill-rule:evenodd; clip-rule:evenodd"
viewBox="0 0 2667 2667"
 xmlns:xlink="http://www.w3.org/1999/xlink">
 <defs>
  <style type="text/css">
   <![CDATA[
    .fil7 {fill:#FEFEFE}
    .fil6 {fill:#BDBFC1}
    .fil5 {fill:#ED3237}
    .fil2 {fill:#333333}
    .fil8 {fill:#4D4D4D}
    .fil1 {fill:#CF5300}
    .fil3 {fill:#E3B486}
    .fil0 {fill:#FF6600}
    .fil4 {fill:#FF9911}
   ]]>
  </style>
 </defs>
 <rect class="fil0" width="2667" height="2667" rx="500" ry="500"/>
 <g id="Layer_x0020_1">
  <metadata id="CorelCorpID_0Corel-Layer"/>
  <path class="fil1" d="M1698 786c11,-5 23,-8 36,-8l450 0c49,0 89,41 89,90l0 321c0,50 -40,90 -89,90l-382 0c23,31 42,66 55,104 77,57 129,142 129,240l0 452 52 0c33,0 62,16 78,45 33,59 -8,133 -78,133l-1488 0c-33,0 -62,-16 -78,-45 -33,-59 8,-133 78,-133l53 0 0 -452c0,-98 51,-183 128,-240 50,-146 179,-239 322,-285l21 -35c-30,-32 -53,-70 -66,-111 -28,-8 -53,-23 -74,-45 -82,-91 -45,-255 74,-286 40,-122 154,-208 286,-208 132,0 247,86 287,208 27,7 52,22 72,44 31,34 45,77 45,121zm-54 130c-17,17 -38,29 -64,36 -13,41 -36,79 -65,111l20 35c38,12 75,28 109,47l0 -229zm-405 238c35,13 75,13 110,0 -36,7 -74,7 -110,0zm503 366c-7,-3 -9,-4 -14,-8 -36,-20 -78,-29 -119,-29l-629 0c-80,0 -199,45 -199,140l0 452 1026 0 0 -452c0,-44 -30,-80 -65,-103zm-448 492c-129,0 -233,-105 -233,-233 0,-129 104,-234 233,-234 129,0 233,105 233,234 0,128 -104,233 -233,233zm0 -288c-30,0 -55,25 -55,55 0,30 25,54 55,54 30,0 55,-24 55,-54 0,-30 -25,-55 -55,-55zm270 -420c-22,-12 -44,-22 -67,-30 -14,11 -30,21 -47,30l114 0zm-426 0c-17,-9 -32,-19 -47,-30 -23,8 -45,18 -66,30l113 0zm33 -538l1 101c0,88 107,141 182,97 39,-22 63,-62 63,-107l0 -87c-78,-33 -168,-40 -246,-4z"/>
  <path class="fil0" d="M1665 786c11,-5 23,-8 36,-8l449 0c50,0 90,41 90,90l0 321c0,50 -40,90 -90,90l-381 0c23,31 41,66 54,104 77,57 129,142 129,240l0 452 53 0c33,0 62,16 78,45 33,59 -8,133 -78,133l-1489 0c-32,0 -62,-16 -77,-45 -33,-59 8,-133 77,-133l53 0 0 -452c0,-98 52,-183 129,-240 50,-146 179,-239 322,-285l20 -35c-29,-32 -52,-70 -66,-111 -28,-8 -53,-23 -73,-45 -83,-91 -46,-255 73,-286 40,-122 155,-208 287,-208 132,0 246,86 286,208 28,7 53,22 73,44 31,34 45,77 45,121zm-54 130c-17,17 -39,29 -64,36 -14,41 -36,79 -66,111l21 35c38,12 74,28 109,47l0 -229zm-406 238c36,13 75,13 111,0 -36,7 -74,7 -111,0zm503 366c-6,-3 -8,-4 -14,-8 -36,-20 -78,-29 -119,-29l-629 0c-79,0 -198,45 -198,140l0 452 1025 0 0 -452c0,-44 -29,-80 -65,-103zm-447 492c-129,0 -234,-105 -234,-233 0,-129 105,-234 234,-234 128,0 233,105 233,234 0,128 -105,233 -233,233zm0 -288c-30,0 -55,25 -55,55 0,30 25,54 55,54 30,0 54,-24 54,-54 0,-30 -24,-55 -54,-55zm269 -420c-21,-12 -43,-22 -66,-30 -15,11 -31,21 -47,30l113 0zm-425 0c-17,-9 -33,-19 -47,-30 -23,8 -45,18 -66,30l113 0zm33 -538l0 101c0,88 107,141 183,97 39,-22 63,-62 63,-107l0 -87c-79,-33 -169,-40 -246,-4z"/>
  <path class="fil2" d="M1907 1118c-15,0 -26,-14 -22,-29l37 -132c8,-28 52,-16 44,13l-37 131c-3,10 -12,17 -22,17zm-1152 307c35,-128 147,-226 309,-271l61 -105c-51,-36 -88,-93 -97,-159l-12 0c-124,0 -123,-208 0,-208l12 0c16,-114 114,-202 233,-202 118,0 216,88 232,202l12 0c124,0 124,208 0,208l-12 0c-9,66 -45,123 -97,159l61 105c163,45 275,143 310,270 72,47 119,118 119,199l0 518 119 0c30,0 30,46 0,46l-1489 0c-30,0 -30,-46 0,-46l120 0 0 -518c0,-81 46,-152 119,-198zm353 -255c86,81 219,81 306,0l-57 -98c-61,27 -131,27 -192,0l-57 98zm631 290c-3,-1 -5,-2 -7,-3 -44,-26 -98,-41 -157,-41l-629 0c-123,0 -265,76 -265,207l0 518 1159 0 0 -518c0,-66 -40,-125 -101,-163zm-31 -65c-42,-90 -133,-160 -259,-196 -45,44 -104,71 -166,76l0 96 292 0c48,0 92,8 133,24zm-470 -120c-62,-5 -121,-32 -166,-76 -70,20 -203,74 -258,196 40,-16 85,-24 132,-24l292 0 0 -96zm-212 -430l0 -118c-18,0 -32,1 -44,17 -25,31 -16,101 34,101l10 0zm470 -118l0 118c17,0 31,0 44,-17 24,-31 15,-101 -35,-101l-9 0zm-235 -202c-90,0 -166,63 -185,147 65,-32 202,-77 370,3 -18,-85 -94,-150 -185,-150zm-190 202l1 140c3,135 158,227 282,155 59,-34 96,-94 96,-165l0 -129c-193,-105 -342,-25 -379,-1zm190 1218c-92,0 -167,-74 -167,-166 0,-92 75,-167 167,-167 92,0 166,75 166,167 0,92 -74,166 -166,166zm0 -288c-67,0 -122,55 -122,122 0,67 55,121 122,121 67,0 121,-54 121,-121 0,-67 -54,-122 -121,-122zm889 -445l-449 0c-13,0 -23,-10 -23,-23l0 -321c0,-13 10,-23 23,-23l449 0c13,0 23,10 23,23l0 321c0,13 -10,23 -23,23zm-427 -45l405 0 0 -276 -405 0 0 276zm279 -51c-20,0 -31,-25 -16,-40l52 -49 -52 -48c-21,-21 10,-54 32,-33l68 65c10,9 10,24 0,33l-68 65c-5,5 -10,7 -16,7zm-153 0c-6,0 -11,-2 -16,-7l-69 -65c-9,-9 -9,-24 0,-33l69 -65c22,-21 53,12 32,33l-52 49 52 48c14,15 4,40 -16,40z"/>
  <path class="fil3" d="M1450 857l0 -129c-193,-105 -342,-25 -379,-1l1 140c3,135 158,227 282,155 59,-34 96,-94 96,-165z"/>
  <path class="fil3" d="M1357 1072c-61,27 -131,27 -192,0l-57 98c86,81 219,81 306,0l-57 -98z"/>
  <path class="fil3" d="M1496 727l0 118c17,0 31,0 44,-17 24,-31 15,-101 -35,-101l-9 0z"/>
  <path class="fil3" d="M1026 845l0 -118c-18,0 -32,1 -44,17 -25,31 -16,101 34,101l10 0z"/>
  <path class="fil4" d="M1723 891l0 276 405 0 0 -276 -405 0zm184 227c-15,0 -26,-14 -22,-29l37 -132c8,-28 52,-16 44,13l-37 131c-3,10 -12,17 -22,17zm95 -2c-20,0 -31,-25 -16,-40l52 -49 -52 -48c-21,-21 10,-54 32,-33l68 65c10,9 10,24 0,33l-68 65c-5,5 -10,7 -16,7zm-153 0c-6,0 -11,-2 -16,-7l-69 -65c-9,-9 -9,-24 0,-33l69 -65c22,-21 53,12 32,33l-52 49 52 48c14,15 4,40 -16,40z"/>
  <path class="fil5" d="M1708 1395c-42,-90 -133,-160 -259,-196 -45,44 -104,71 -166,76l0 96 292 0c48,0 92,8 133,24z"/>
  <path class="fil5" d="M1238 1371l0 -96c-62,-5 -121,-32 -166,-76 -70,20 -203,74 -258,196 40,-16 85,-24 132,-24l292 0z"/>
  <path class="fil6" d="M1575 1416l-629 0c-123,0 -265,76 -265,207l0 518 1159 0 0 -518c0,-66 -40,-125 -101,-163 -3,-1 -5,-2 -7,-3 -44,-26 -98,-41 -157,-41zm-481 363c0,-92 75,-167 167,-167 92,0 166,75 166,167 0,92 -74,166 -166,166 -92,0 -167,-74 -167,-166z"/>
  <path class="fil7" d="M1382 1779c0,-67 -54,-122 -121,-122 -67,0 -122,55 -122,122 0,67 55,121 122,121 67,0 121,-54 121,-121z"/>
  <path class="fil8" d="M1076 672c65,-32 202,-77 370,3 -18,-85 -94,-150 -185,-150 -90,0 -166,63 -185,147z"/>
 </g>
</svg>
