<?xml version="1.0" encoding="UTF-8" standalone="no"?> <svg xmlns="http://www.w3.org/2000/svg" viewBox="0 0 128 128"><defs><style>.cls-1{fill:#ffce47;}.cls-2{fill:#ffda75;}.cls-3{fill:#f47c27;}.cls-4{fill:#ffc219;}.cls-5{fill:#f69652;}</style></defs><title>19 School Bell</title><g id="_19_School_Bell" data-name="19 School Bell"><path class="cls-1" d="M70.5,29h-13V22.5a6.5,6.5,0,0,1,13,0Z"/><path class="cls-2" d="M64.62,16A6.5,6.5,0,0,0,57.5,22.5V29h1.23V22.5A6.5,6.5,0,0,1,64.62,16Z"/><path class="cls-3" d="M67.3,16.91A6.47,6.47,0,0,1,69,21.27c0,4.24-1.82.47-11.49,3.46v4.36h13V29C70.5,22.61,71.14,19.18,67.3,16.91Z"/><circle class="cls-4" cx="64" cy="98.03" r="14"/><path class="cls-3" d="M64,84c-.41,0-.82,0-1.22.06A14,14,0,0,1,75.53,97.31H50l23.38,1.87a2,2,0,0,1,1.72,2.45A14,14,0,0,1,62.78,112,14,14,0,1,0,64,84Z"/><path class="cls-4" d="M93.33,97.31H34.67v-44a29.33,29.33,0,0,1,58.67,0Z"/><path class="cls-1" d="M65.23,24a29.32,29.32,0,0,0-30.57,29.3v44h2.47v-44A29.33,29.33,0,0,1,65.23,24Z"/><path class="cls-3" d="M85.35,33.23a29.19,29.19,0,0,1,5.54,17.15V75.74a4.46,4.46,0,0,1-4.24,4.46L37.13,82.64H90.89V94.36H34.67v3H93.33v-44A29.22,29.22,0,0,0,85.35,33.23Z"/><rect class="cls-1" x="27.33" y="82.64" width="73.34" height="14.67" rx="6" ry="6"/><path class="cls-2" d="M28.57,89.36a6,6,0,0,1,6-6c66.15,0,62.07-.21,63.67.47-2.24-1.66,1.82-1.19-64.91-1.19a6,6,0,0,0-6,6c0,2.2-.56,6.41,3.66,8.19C28.16,94.73,28.57,91.9,28.57,89.36Z"/><path class="cls-5" d="M98.36,83.92c1.53,2,1.27,3.69,1.27,6.36a6,6,0,0,1-6,6c-66.69,0-62.75.5-65-1.27a6,6,0,0,0,4.73,2.31H94.67a6,6,0,0,0,6-6C100.67,88.73,101.06,86,98.36,83.92Z"/></g></svg>